<?xml version="1.0" standalone="no"?>
<!DOCTYPE svg PUBLIC "-//W3C//DTD SVG 20010904//EN"
 "http://www.w3.org/TR/2001/REC-SVG-20010904/DTD/svg10.dtd">
<svg version="1.0" xmlns="http://www.w3.org/2000/svg"
 width="900.000000pt" height="900.000000pt" viewBox="0 0 900.000000 900.000000"
 preserveAspectRatio="xMidYMid meet">
<metadata>
Created by potrace 1.11, written by Peter Selinger 2001-2013
</metadata>
<g transform="translate(0.000000,900.000000) scale(0.100000,-0.100000)"
fill="#000000" stroke="none">
<path d="M0 4500 l0 -4500 4500 0 4500 0 0 4500 0 4500 -4500 0 -4500 0 0
-4500z m6345 4221 c30 -17 30 -18 31 -104 0 -48 3 -90 7 -93 3 -3 44 -19 91
-35 191 -64 256 -120 343 -298 l57 -116 4 -118 c4 -103 2 -124 -17 -166 -29
-69 -38 -153 -17 -170 22 -19 29 -71 16 -122 -9 -36 -31 -63 -114 -146 l-103
-103 27 -58 c26 -53 43 -69 198 -191 119 -93 174 -142 181 -162 5 -16 14 -29
19 -29 13 0 192 186 193 201 1 8 0 29 -1 47 -2 36 30 96 58 107 9 4 31 7 48 6
39 -3 39 -3 253 232 95 103 169 192 165 198 -3 5 -36 24 -72 40 -73 34 -127
74 -213 159 -76 76 -100 110 -154 219 -41 82 -46 99 -43 149 3 54 5 57 43 79
52 29 142 30 266 3 200 -45 363 -120 503 -233 113 -91 131 -123 131 -234 0
-74 -3 -85 -30 -124 -17 -24 -58 -63 -90 -86 l-60 -43 -95 6 -95 6 -125 -148
c-226 -268 -220 -259 -220 -314 0 -65 -27 -96 -99 -115 -53 -14 -93 -49 -174
-152 l-18 -23 246 0 245 0 10 -24 c5 -14 69 -66 164 -132 86 -59 156 -111 156
-115 0 -4 -67 -279 -149 -611 -82 -332 -152 -619 -156 -638 -4 -19 -13 -38
-19 -42 -6 -4 -465 -8 -1019 -8 l-1009 0 -168 115 c-108 73 -178 115 -194 115
-31 0 -32 13 -11 84 8 27 15 55 15 63 0 10 -51 13 -270 13 -148 0 -270 -3
-270 -7 0 -5 50 -42 110 -83 75 -51 110 -81 110 -94 0 -17 -109 -452 -356
-1422 -52 -204 -94 -376 -94 -382 0 -9 41 -12 144 -12 129 0 145 2 150 18 3 9
19 80 36 157 17 77 35 157 41 178 l10 38 1030 -1 1030 -1 8 -23 c5 -12 74 -65
165 -125 86 -57 156 -108 156 -114 0 -10 -137 -582 -275 -1142 l-42 -170 -791
-3 c-790 -2 -791 -2 -797 -23 -4 -11 -5 -22 -3 -23 1 -1 21 -16 43 -33 30 -23
50 -31 79 -30 30 1 44 -5 61 -25 13 -15 25 -32 27 -39 3 -9 23 -6 79 11 40 13
85 24 99 25 14 0 39 7 55 14 65 27 82 25 148 -15 85 -52 127 -84 127 -98 0 -7
-6 -20 -13 -30 -11 -16 -17 -17 -36 -6 -13 6 -25 10 -27 7 -3 -2 34 -30 81
-61 94 -63 103 -79 85 -147 -18 -67 -35 -89 -72 -89 -37 0 -98 43 -98 70 0 45
-8 49 -57 33 -90 -31 -251 14 -367 103 -26 20 -49 34 -50 32 -1 -1 -8 -22 -15
-46 -6 -23 -17 -42 -24 -42 -7 0 -28 -3 -48 -6 -36 -6 -37 -5 -55 41 -15 41
-16 52 -5 79 7 17 15 48 16 68 3 33 -2 42 -41 78 -29 26 -53 40 -71 40 -16 0
-39 3 -52 7 -23 6 -23 6 -16 -58 4 -35 15 -124 26 -197 10 -73 19 -141 19
-151 0 -10 -31 -49 -70 -87 -38 -38 -70 -72 -70 -77 0 -4 -10 -22 -22 -39 -17
-23 -20 -32 -10 -35 25 -9 62 -58 62 -82 0 -14 -9 -34 -19 -45 -13 -14 -22
-43 -26 -87 -6 -61 -5 -68 12 -73 21 -7 53 -65 53 -95 0 -40 -23 -81 -61 -106
-36 -26 -39 -31 -39 -76 0 -42 4 -50 30 -69 17 -12 40 -40 51 -63 20 -39 21
-46 9 -131 -7 -50 -24 -119 -38 -154 -47 -121 -174 -265 -258 -292 -32 -11
-38 -10 -59 10 -35 33 -50 102 -49 220 2 139 21 220 77 322 35 65 54 87 81
100 31 15 35 22 41 72 8 65 5 81 -20 81 -14 0 -24 14 -37 47 -16 43 -16 51 -2
83 8 20 29 49 46 64 29 25 32 35 36 95 l4 67 -26 -7 c-14 -3 -43 -15 -63 -25
-27 -14 -58 -19 -113 -19 -110 0 -147 13 -165 57 -19 44 -25 39 -59 -47 -25
-61 -25 -66 -9 -77 9 -7 28 -13 41 -13 69 0 126 -137 127 -305 0 -84 -4 -113
-28 -181 -31 -90 -75 -167 -106 -183 -17 -9 -26 -6 -55 19 -49 43 -106 133
-126 199 -21 65 -41 242 -33 287 5 35 -7 48 -47 48 -21 1 -26 7 -33 48 -6 33
-5 54 5 74 15 33 76 77 96 69 9 -3 22 14 39 51 l25 55 -28 54 c-27 51 -31 54
-75 60 -36 5 -51 13 -69 37 l-22 30 12 270 c7 148 9 272 6 275 -3 4 -17 7 -30
9 -30 3 -112 -76 -103 -100 21 -55 -70 -125 -110 -85 -13 13 -64 -18 -95 -55
-9 -12 -20 -21 -25 -21 -4 0 -25 -13 -45 -29 -48 -36 -101 -55 -158 -56 -61 0
-223 27 -265 44 -31 13 -38 13 -74 -5 -22 -10 -44 -19 -50 -19 -5 0 -27 -22
-48 -50 -41 -53 -50 -57 -77 -37 -17 13 -16 16 14 65 l32 52 -26 31 c-32 37
-26 48 56 108 74 55 161 90 249 102 56 8 96 5 230 -16 105 -16 169 -31 180
-41 22 -20 35 -13 42 23 10 48 31 66 77 69 34 1 49 9 81 40 21 21 39 42 39 46
0 4 -447 8 -993 8 l-993 0 -164 115 c-114 80 -173 115 -192 115 -33 0 -33 -3
-9 85 25 89 281 1109 281 1117 0 4 -17 10 -38 13 -20 3 -50 13 -67 21 -21 10
-53 13 -105 11 -74 -4 -75 -5 -98 -42 -21 -32 -23 -44 -16 -84 16 -90 1 -130
-63 -168 -25 -14 -52 -23 -63 -20 -16 4 -28 -9 -64 -76 -44 -80 -45 -82 -26
-102 12 -13 18 -33 17 -60 -2 -37 0 -40 31 -46 46 -9 68 -33 93 -98 16 -43 20
-73 17 -131 -3 -66 -7 -81 -36 -123 -49 -70 -67 -84 -177 -137 -121 -58 -270
-107 -384 -126 -78 -13 -87 -12 -115 4 -42 24 -58 63 -64 149 -4 69 -2 79 43
188 42 102 55 121 109 174 33 32 78 79 99 105 30 35 45 46 68 46 23 0 30 5 34
27 15 76 47 115 97 118 18 1 32 18 62 75 35 65 37 75 23 85 -23 16 -32 112
-15 145 7 14 35 40 62 57 37 26 52 31 66 23 21 -11 41 10 98 105 26 44 29 55
23 95 -5 25 -40 115 -79 201 l-70 157 39 103 c21 57 39 107 39 111 0 20 -48 4
-101 -34 -45 -33 -58 -49 -59 -69 0 -14 -10 -41 -23 -60 -20 -30 -28 -34 -75
-37 -41 -2 -52 0 -52 12 0 23 -33 36 -94 36 -52 0 -61 -4 -114 -47 -31 -25
-88 -61 -127 -79 -65 -29 -72 -31 -103 -18 -41 17 -180 114 -208 146 -34 38
-118 191 -116 213 0 11 -10 51 -24 90 -47 129 -33 199 60 300 63 69 64 70 95
58 35 -13 37 -11 16 20 -19 29 -45 114 -45 148 0 27 90 156 116 166 27 10 163
-66 231 -130 110 -103 220 -216 227 -232 7 -20 25 -19 33 1 3 8 17 20 30 25
13 5 22 12 20 16 -9 14 37 60 95 97 l57 36 53 -20 c62 -24 88 -51 88 -90 0
-45 -29 -113 -60 -142 -17 -15 -30 -34 -30 -44 0 -27 -39 -83 -107 -153 -49
-51 -62 -71 -58 -88 3 -13 -4 -37 -16 -58 -12 -20 -20 -38 -18 -40 2 -2 24 -5
48 -6 37 -3 51 2 107 41 58 42 63 47 58 76 -10 56 129 194 196 194 20 0 38 20
73 81 21 38 33 48 62 53 19 4 35 10 34 14 0 4 -22 24 -48 44 -61 46 -127 132
-177 228 -30 60 -38 87 -39 135 -1 33 -7 80 -14 104 -14 50 -7 124 15 158 8
12 14 46 15 75 1 103 51 302 100 400 90 179 211 269 420 312 59 12 79 21 99
44 14 17 34 31 44 33 12 3 33 29 55 70 l35 66 -22 28 c-31 40 -30 108 2 140
50 50 125 43 164 -15 46 -69 4 -148 -83 -158 -46 -5 -48 -6 -71 -59 -29 -65
-29 -68 -3 -104 17 -24 28 -29 61 -29 66 0 191 -39 248 -76 29 -19 54 -33 56
-32 1 2 16 58 33 125 17 67 35 133 41 147 l10 26 1445 0 1445 0 5 25 c3 14 7
36 10 49 4 20 -4 32 -39 61 -44 35 -44 36 -115 29 l-71 -6 -25 54 c-30 66 -59
96 -78 80 -9 -8 -35 -4 -97 13 -47 13 -112 27 -145 31 -74 8 -172 51 -179 79
-9 31 -7 101 3 129 9 21 18 25 68 31 90 10 93 15 28 38 l-60 22 0 45 0 45 40
3 c73 6 212 -46 307 -115 50 -37 65 -43 107 -43 53 0 69 -6 365 -148 154 -73
159 -75 185 -59 44 26 36 40 -38 71 -93 38 -214 128 -277 207 -34 42 -66 100
-95 168 -32 78 -50 108 -70 120 -24 13 -29 25 -38 88 -10 66 -9 76 9 108 11
19 33 47 48 62 16 16 37 51 47 78 76 212 224 384 375 437 25 9 87 19 138 22
52 3 98 8 103 12 5 3 9 17 9 31 0 22 -3 24 -27 19 -86 -22 -140 91 -72 148 34
29 49 28 104 -3z"/>
<path d="M3045 6678 c-4 -13 -51 -196 -374 -1463 -94 -368 -189 -740 -211
-825 -51 -197 -383 -1495 -402 -1575 l-15 -60 2265 -3 c1246 -1 2269 1 2272 5
4 5 31 103 60 218 28 116 92 366 141 557 49 191 89 352 89 358 0 7 -278 9
-892 8 l-893 -3 -41 -160 c-22 -88 -44 -172 -47 -188 l-7 -27 -479 0 -479 0
259 1030 c142 566 259 1036 259 1045 0 13 -31 15 -232 15 l-232 0 -60 -39
c-99 -64 -158 -84 -256 -83 -202 0 -357 105 -368 250 -6 88 11 137 72 197 71
71 139 97 273 103 117 5 191 -14 284 -73 l54 -34 738 -1 c707 0 737 -1 737
-18 0 -10 -18 -92 -40 -181 -22 -89 -40 -166 -40 -172 0 -6 336 -8 902 -7
l903 3 102 390 c56 215 122 467 147 560 25 94 46 173 46 178 0 4 -1019 7
-2265 7 -1804 0 -2267 -3 -2270 -12z"/>
</g>
</svg>
